<svg width="146" height="146" viewBox="0 0 146 146" fill="none" xmlns="http://www.w3.org/2000/svg">
<path d="M141.911 74.1111L141.526 78.4363C141.434 79.4699 141.154 80.3635 140.685 81.1169C140.224 81.8801 139.616 82.4475 138.861 82.819C138.105 83.1996 137.251 83.3476 136.299 83.2629C135.347 83.1783 134.532 82.8819 133.856 82.3739C133.178 81.875 132.675 81.2088 132.347 80.3754C132.027 79.5518 131.914 78.6232 132.006 77.5896L132.39 73.2644L141.911 74.1111ZM133.824 77.6416C133.739 78.5937 133.935 79.3742 134.411 79.9832C134.895 80.602 135.591 80.9517 136.497 81.0323C137.404 81.113 138.146 80.8911 138.723 80.3666C139.308 79.852 139.642 79.1187 139.727 78.1666L139.906 76.1536L134.003 75.6287L133.824 77.6416Z" fill="white"/>
<path d="M130.979 92.1011L129.262 91.6499L131.144 84.4921L140.388 86.9221L138.552 93.9082L136.835 93.4569L138.112 88.597L136.105 88.0694L134.977 92.3614L133.313 91.924L134.441 87.632L132.302 87.0696L130.979 92.1011Z" fill="white"/>
<path d="M125.317 100.707L130.518 103.124L127.429 98.5742L127.852 97.6712L133.206 97.0848L128.122 94.7075L129.001 92.8274L137.66 96.8763L136.885 98.5337L129.989 99.2584L133.877 104.966L133.108 106.611L124.438 102.587L125.317 100.707Z" fill="white"/>
<path d="M120.431 107.988C121.024 107.192 121.731 106.601 122.552 106.214C123.368 105.834 124.212 105.684 125.082 105.765C125.955 105.858 126.767 106.185 127.519 106.744C128.271 107.304 128.813 107.986 129.146 108.789C129.48 109.606 129.583 110.459 129.453 111.35C129.318 112.248 128.954 113.095 128.362 113.891C127.769 114.687 127.065 115.275 126.249 115.655C125.433 116.035 124.586 116.182 123.708 116.096C122.837 116.015 122.026 115.695 121.274 115.135C120.522 114.575 119.979 113.887 119.644 113.071C119.317 112.26 119.218 111.409 119.348 110.518C119.478 109.628 119.839 108.784 120.431 107.988ZM121.943 109.113C121.606 109.566 121.404 110.051 121.336 110.569C121.276 111.091 121.357 111.593 121.577 112.075C121.792 112.564 122.136 112.985 122.611 113.339C123.086 113.692 123.588 113.901 124.118 113.967C124.643 114.039 125.143 113.969 125.619 113.756C126.103 113.549 126.513 113.219 126.85 112.766C127.187 112.313 127.386 111.825 127.446 111.303C127.513 110.785 127.439 110.282 127.224 109.793C127.004 109.312 126.657 108.894 126.182 108.541C125.707 108.188 125.208 107.975 124.683 107.902C124.153 107.836 123.646 107.907 123.163 108.115C122.686 108.328 122.28 108.661 121.943 109.113Z" fill="white"/>
<path d="M123.041 120.25L119.85 123.195C119.088 123.899 118.28 124.372 117.426 124.615C116.572 124.871 115.74 124.883 114.931 124.651C114.116 124.425 113.384 123.961 112.736 123.258C112.087 122.556 111.683 121.789 111.523 120.958C111.356 120.134 111.431 119.302 111.748 118.465C112.065 117.64 112.604 116.875 113.367 116.172L116.558 113.226L123.041 120.25ZM114.679 117.432C113.977 118.08 113.597 118.79 113.541 119.561C113.483 120.344 113.764 121.07 114.381 121.739C114.999 122.408 115.697 122.742 116.477 122.741C117.256 122.753 117.996 122.435 118.699 121.786L120.184 120.416L116.164 116.061L114.679 117.432Z" fill="white"/>
<path d="M103.08 123.96L106.074 125.195L106.166 125.136L107.783 124.09L106.337 121.854L108.194 120.653L113.385 128.68L109.91 130.926C109.199 131.386 108.507 131.665 107.834 131.764C107.154 131.869 106.531 131.794 105.966 131.541C105.402 131.289 104.927 130.864 104.541 130.268C104.156 129.671 103.967 129.062 103.976 128.438C103.982 127.827 104.175 127.236 104.554 126.666L101.085 125.25L103.08 123.96ZM106.422 129.052C106.713 129.503 107.081 129.753 107.525 129.802C107.973 129.859 108.477 129.707 109.035 129.346L110.548 128.367L108.739 125.569L107.226 126.548C106.668 126.909 106.322 127.306 106.19 127.738C106.058 128.171 106.135 128.608 106.422 129.052Z" fill="white"/>
<path d="M94.0258 130.341L93.3039 128.719L100.065 125.709L103.952 134.442L97.3531 137.379L96.6312 135.757L101.222 133.714L100.378 131.818L96.3236 133.622L95.6239 132.051L99.6782 130.246L98.7786 128.225L94.0258 130.341Z" fill="white"/>
<path d="M86.5394 132.767L90.8314 131.639L91.1295 129.443L93.3217 128.867L91.6314 139.194L89.5184 139.749L82.9549 131.592L85.2 131.001L86.5394 132.767ZM87.6399 134.214L90.0362 137.368L90.5717 133.444L87.6399 134.214Z" fill="white"/>
<path d="M73.4847 132.335L73.8742 138.057L76.3714 133.158L77.366 133.093L80.4608 137.501L80.093 131.901L82.1641 131.765L82.7905 141.303L80.9647 141.423L77.0056 135.73L73.8795 141.888L72.0673 142.007L71.4136 132.471L73.4847 132.335Z" fill="white"/>
<path d="M67.8665 141.807L63.5637 141.223C62.5353 141.084 61.6557 140.763 60.9247 140.259C60.1836 139.764 59.6448 139.13 59.3085 138.359C58.9632 137.586 58.8547 136.726 58.9832 135.779C59.1117 134.832 59.4453 134.032 59.984 133.379C60.5137 132.726 61.2023 132.254 62.05 131.965C62.8874 131.683 63.8203 131.612 64.8486 131.752L69.1514 132.336L67.8665 141.807ZM64.7127 133.566C63.7655 133.438 62.9768 133.597 62.3466 134.044C61.7061 134.5 61.3247 135.178 61.2023 136.08C61.0799 136.982 61.2674 137.733 61.7647 138.334C62.2518 138.942 62.9689 139.31 63.916 139.439L65.9186 139.71L66.7153 133.838L64.7127 133.566Z" fill="white"/>
<path d="M50.5038 130.054L51.0326 128.359L58.0974 130.564L55.25 139.688L48.3546 137.537L48.8834 135.842L53.6802 137.339L54.2985 135.358L50.0622 134.036L50.5748 132.393L54.8111 133.715L55.47 131.604L50.5038 130.054Z" fill="white"/>
<path d="M42.1831 123.973L39.5183 129.051L44.2112 126.185L45.0928 126.651L45.4205 132.027L48.04 127.064L49.8756 128.032L45.4142 136.486L43.796 135.632L43.4045 128.709L37.5164 132.317L35.9103 131.47L40.3476 123.004L42.1831 123.973Z" fill="white"/>
<path d="M35.2288 118.814C35.9981 119.441 36.5582 120.173 36.909 121.01C37.2528 121.842 37.3655 122.691 37.2469 123.558C37.1155 124.425 36.7538 125.222 36.1616 125.949C35.5694 126.676 34.8646 127.188 34.0474 127.485C33.2173 127.784 32.3601 127.848 31.4759 127.68C30.5846 127.506 29.7543 127.105 28.985 126.479C28.2157 125.852 27.6591 125.123 27.3153 124.291C26.9715 123.459 26.8618 122.606 26.9861 121.733C27.1046 120.867 27.46 120.07 28.0522 119.343C28.6444 118.616 29.3555 118.104 30.1856 117.805C31.0099 117.514 31.8642 117.453 32.7485 117.621C33.6327 117.79 34.4595 118.187 35.2288 118.814ZM34.0387 120.275C33.6011 119.918 33.1254 119.695 32.6115 119.605C32.0919 119.523 31.5866 119.581 31.0958 119.78C30.5979 119.973 30.1621 120.299 29.7884 120.758C29.4147 121.216 29.1836 121.709 29.095 122.236C28.9994 122.757 29.0476 123.26 29.2395 123.745C29.4256 124.237 29.7375 124.661 30.1751 125.018C30.6127 125.374 31.0913 125.594 31.6109 125.677C32.1248 125.766 32.6306 125.715 33.1285 125.521C33.6194 125.323 34.0516 124.994 34.4254 124.535C34.7991 124.076 35.0337 123.586 35.1293 123.065C35.2179 122.539 35.1691 122.029 34.9829 121.537C34.791 121.052 34.4763 120.631 34.0387 120.275Z" fill="white"/>
<path d="M22.904 120.896L20.1007 117.58C19.4308 116.787 18.9931 115.959 18.7877 115.096C18.5695 114.232 18.5939 113.4 18.861 112.602C19.1223 111.797 19.6178 111.086 20.3478 110.469C21.0778 109.852 21.8613 109.482 22.6985 109.358C23.5298 109.228 24.357 109.339 25.18 109.692C25.9902 110.044 26.7303 110.617 27.4003 111.409L30.2036 114.725L22.904 120.896ZM26.0839 112.665C25.4668 111.935 24.7745 111.525 24.0069 111.435C23.2265 111.344 22.4887 111.592 21.7935 112.18C21.0983 112.767 20.7342 113.45 20.7013 114.229C20.6555 115.007 20.9411 115.761 21.5582 116.491L22.8628 118.034L27.3886 114.208L26.0839 112.665Z" fill="white"/>
<path d="M20.0678 100.741L18.6912 103.673L18.7461 103.767L19.7131 105.432L22.0155 104.095L23.1266 106.007L14.8614 110.808L12.7833 107.231C12.3581 106.499 12.112 105.794 12.0452 105.117C11.9737 104.432 12.0777 103.814 12.3572 103.262C12.6367 102.71 13.0835 102.256 13.6975 101.899C14.3115 101.542 14.9297 101.383 15.5521 101.422C16.1621 101.457 16.7429 101.678 17.2945 102.084L18.8744 98.6868L20.0678 100.741ZM14.8222 103.836C14.3578 104.105 14.0905 104.461 14.0202 104.901C13.942 105.347 14.0699 105.857 14.4036 106.432L15.3089 107.99L18.1899 106.317L17.2846 104.758C16.9509 104.183 16.5712 103.82 16.1455 103.667C15.7199 103.514 15.2788 103.57 14.8222 103.836Z" fill="white"/>
<path d="M14.1362 91.482L15.7886 90.8335L18.4922 97.7229L9.59447 101.215L6.95572 94.4905L8.60815 93.842L10.4438 98.5197L12.3759 97.7615L10.7547 93.6304L12.3563 93.0019L13.9775 97.133L16.0367 96.3249L14.1362 91.482Z" fill="white"/>
<path d="M12.0435 83.8529L12.9746 88.1919L15.1549 88.5899L15.6305 90.8062L5.39103 88.6462L4.93264 86.51L13.3815 80.3258L13.8685 82.5954L12.0435 83.8529ZM10.5475 84.8862L7.28749 87.1359L11.1835 87.8501L10.5475 84.8862Z" fill="white"/>
<path d="M13.0715 70.886L7.33785 71.0103L12.1158 73.7315L12.135 74.7281L7.58827 77.6156L13.1993 77.5073L13.2394 79.5824L3.68283 79.7669L3.64752 77.9375L9.51719 74.246L3.51049 70.8383L3.47544 69.0226L13.0315 68.8108L13.0715 70.886Z" fill="white"/>
<path d="M3.8476 64.7172L4.64484 60.4488C4.83537 59.4287 5.20021 58.5662 5.73935 57.8612C6.27121 57.1456 6.93072 56.6391 7.71787 56.3416C8.50669 56.0351 9.3709 55.9697 10.3105 56.1452C11.2501 56.3206 12.0324 56.6937 12.6574 57.2642C13.2841 57.8257 13.7208 58.537 13.9674 59.398C14.2068 60.2484 14.2312 61.1836 14.0407 62.2038L13.2434 66.4722L3.8476 64.7172ZM12.2354 61.9777C12.4109 61.0381 12.291 60.2425 11.8756 59.5907C11.4529 58.9284 10.7942 58.5136 9.89932 58.3465C9.00448 58.1793 8.24491 58.3292 7.6206 58.796C6.98902 59.2522 6.58549 59.9501 6.40999 60.8896L6.03895 62.8762L11.8644 63.9643L12.2354 61.9777Z" fill="white"/>
<path d="M16.3864 48.0259L18.0531 48.637L15.5052 55.5855L6.53113 52.2949L9.0179 45.513L10.6845 46.1242L8.95458 50.8419L10.9032 51.5565L12.431 47.39L14.0463 47.9823L12.5186 52.1488L14.5954 52.9103L16.3864 48.0259Z" fill="white"/>
<path d="M22.7059 40.1745L17.7506 37.2876L20.4054 42.1027L19.9016 42.9628L14.5161 43.0522L19.3586 45.8888L18.3095 47.6797L10.062 42.8485L10.9869 41.2697L17.9204 41.185L14.5758 35.143L15.4938 33.576L23.755 38.3837L22.7059 40.1745Z" fill="white"/>
<path d="M28.2389 33.3143C27.5766 34.0531 26.8187 34.5779 25.9654 34.8888C25.1182 35.1929 24.2647 35.2652 23.4051 35.1059C22.5448 34.9336 21.7655 34.5345 21.0674 33.9087C20.3693 33.2828 19.8912 32.5546 19.6331 31.7242C19.3744 30.8809 19.35 30.0217 19.5601 29.1464C19.7763 28.2643 20.2156 27.4538 20.8779 26.715C21.5403 25.9762 22.2951 25.4548 23.1423 25.1507C23.9896 24.8466 24.8464 24.7773 25.7128 24.9428C26.5724 25.1021 27.3513 25.4948 28.0495 26.1207C28.7476 26.7466 29.226 27.4811 29.4848 28.3244C29.7368 29.1616 29.7577 30.0178 29.5476 30.8931C29.3375 31.7684 28.9013 32.5755 28.2389 33.3143ZM26.8359 32.0564C27.2126 31.6362 27.458 31.1715 27.572 30.6625C27.6793 30.1474 27.6452 29.6399 27.4697 29.1403C27.3002 28.6338 26.9952 28.1831 26.5546 27.7881C26.114 27.3931 25.6328 27.1389 25.1109 27.0256C24.5951 26.9055 24.0903 26.9298 23.5967 27.0985C23.0963 27.2612 22.6578 27.5527 22.281 27.9729C21.9042 28.3931 21.6622 28.8608 21.555 29.376C21.4409 29.885 21.4686 30.3928 21.6381 30.8992C21.8136 31.3989 22.1217 31.8463 22.5622 32.2413C23.0028 32.6362 23.481 32.8938 23.9968 33.0139C24.5187 33.1273 25.0299 33.1026 25.5303 32.9399C26.0239 32.7712 26.4591 32.4767 26.8359 32.0564Z" fill="white"/>
<path d="M26.7115 20.8726L30.1565 18.2294C30.9799 17.5977 31.8276 17.1997 32.6998 17.0354C33.5736 16.8583 34.4028 16.9221 35.1872 17.2267C35.9789 17.5257 36.6656 18.0544 37.2474 18.8128C37.8292 19.5711 38.1621 20.3713 38.246 21.2134C38.337 22.0499 38.1867 22.8709 37.795 23.6763C37.4049 24.469 36.7982 25.1812 35.9748 25.8129L32.5298 28.456L26.7115 20.8726ZM34.7827 24.4385C35.541 23.8567 35.9834 23.1845 36.1098 22.4221C36.2379 21.6469 36.0248 20.8981 35.4707 20.1759C34.9166 19.4537 34.2513 19.0576 33.4749 18.9878C32.7002 18.9053 31.9337 19.1549 31.1753 19.7367L29.572 20.9669L33.1793 25.6687L34.7827 24.4385Z" fill="white"/>
<path d="M46.8336 19.0173L43.9661 17.5123L43.8693 17.5629L42.1633 18.4553L43.3974 20.8147L41.4372 21.8399L37.0071 13.3702L40.6733 11.4526C41.4235 11.0602 42.1382 10.8456 42.8175 10.8088C43.5049 10.7677 44.1181 10.899 44.657 11.2027C45.196 11.5064 45.63 11.9728 45.9591 12.602C46.2882 13.2312 46.4197 13.8558 46.3537 14.4759C46.2915 15.0837 46.0454 15.6542 45.6154 16.1873L48.939 17.9161L46.8336 19.0173ZM43.9747 13.6399C43.7258 13.164 43.3827 12.8812 42.9454 12.7914C42.5038 12.6936 41.9886 12.7987 41.3998 13.1067L39.8027 13.9421L41.3469 16.8944L42.944 16.059C43.5328 15.751 43.913 15.3878 44.0845 14.9693C44.256 14.5509 44.2194 14.1077 43.9747 13.6399Z" fill="white"/>
<path d="M56.6922 13.376L57.2592 15.0581L50.2461 17.4221L47.1929 8.36455L54.0378 6.0572L54.6048 7.73933L49.8431 9.34444L50.5061 11.3112L54.7114 9.89367L55.261 11.524L51.0557 12.9416L51.7623 15.0378L56.6922 13.376Z" fill="white"/>
<path d="M64.1916 11.6797L59.8145 12.4109L59.3169 14.5706L57.0812 14.9441L59.7084 4.81446L61.8633 4.45449L67.6537 13.178L65.3641 13.5605L64.1916 11.6797ZM63.228 10.1379L61.1301 6.77816L60.2381 10.6373L63.228 10.1379Z" fill="white"/>
<path d="M77.4938 13.2973L77.6572 7.56463L74.6998 12.2001L73.7034 12.1693L71.0476 7.48344L70.8744 13.0929L68.7998 13.0288L69.0949 3.47502L70.9238 3.53151L74.3162 9.57894L78.0209 3.75071L79.8361 3.80678L79.5683 13.3614L77.4938 13.2973Z" fill="white"/>
<path d="M83.7372 4.3269L87.9647 5.31867C88.975 5.5557 89.8199 5.95963 90.4995 6.53047C91.19 7.09453 91.6658 7.77653 91.927 8.57647C92.197 9.37849 92.2228 10.2448 92.0045 11.1754C91.7862 12.1059 91.3778 12.8703 90.7792 13.4686C90.1896 14.0689 89.4591 14.4726 88.5877 14.6796C87.7272 14.8798 86.7918 14.8614 85.7815 14.6243L81.5541 13.6326L83.7372 4.3269ZM86.09 12.8313C87.0205 13.0496 87.8208 12.9662 88.4909 12.5811C89.1719 12.1892 89.6164 11.5501 89.8243 10.6639C90.0322 9.77762 89.9173 9.01199 89.4796 8.36697C89.0528 7.71517 88.3741 7.28011 87.4435 7.0618L85.476 6.60022L84.1225 12.3697L86.09 12.8313Z" fill="white"/>
<path d="M99.7098 17.5517L99.0244 19.1891L92.1974 16.3316L95.888 7.51448L102.551 10.3035L101.866 11.9409L97.2305 10.0008L96.4292 11.9153L100.523 13.6288L99.8585 15.2159L95.7649 13.5024L94.9108 15.543L99.7098 17.5517Z" fill="white"/>
<path d="M107.556 24.3826L110.676 19.5707L105.74 21.9926L104.905 21.4483L105.072 16.0648L102.008 20.7662L100.269 19.6329L105.489 11.6255L107.021 12.6246L106.775 19.5542L112.97 16.502L114.491 17.4937L109.294 25.516L107.556 24.3826Z" fill="white"/>
<path d="M114.167 30.2587C113.46 29.5622 112.972 28.7804 112.702 27.9134C112.438 27.0527 112.406 26.1968 112.606 25.3457C112.818 24.4944 113.254 23.7349 113.912 23.0671C114.57 22.3993 115.32 21.9561 116.162 21.7376C117.016 21.519 117.876 21.5352 118.74 21.7864C119.611 22.044 120.4 22.5211 121.106 23.2176C121.813 23.9141 122.298 24.6927 122.562 25.5533C122.826 26.414 122.855 27.2731 122.648 28.1308C122.449 28.9819 122.02 29.7414 121.361 30.4092C120.703 31.077 119.947 31.5202 119.092 31.7388C118.244 31.951 117.388 31.9315 116.524 31.6803C115.659 31.4291 114.874 30.9552 114.167 30.2587ZM115.49 28.9166C115.892 29.3128 116.344 29.5799 116.847 29.7178C117.357 29.8493 117.865 29.8392 118.373 29.6874C118.887 29.5421 119.351 29.2587 119.767 28.8372C120.182 28.4158 120.458 27.9471 120.596 27.4312C120.741 26.9216 120.74 26.4163 120.595 25.9152C120.456 25.4077 120.186 24.9559 119.784 24.5597C119.382 24.1635 118.926 23.8997 118.417 23.7682C117.913 23.6302 117.405 23.6339 116.891 23.7793C116.384 23.931 115.922 24.2176 115.507 24.639C115.091 25.0605 114.812 25.526 114.667 26.0355C114.529 26.5515 114.53 27.0633 114.669 27.5708C114.814 28.0718 115.088 28.5204 115.49 28.9166Z" fill="white"/>
<path d="M126.679 29.3542L129.156 32.9208C129.748 33.7732 130.105 34.6389 130.228 35.5179C130.363 36.3992 130.26 37.2243 129.919 37.9934C129.583 38.77 129.022 39.4309 128.237 39.9761C127.452 40.5212 126.637 40.8157 125.791 40.8595C124.952 40.9108 124.139 40.7217 123.353 40.2922C122.579 39.8649 121.897 39.2251 121.305 38.3727L118.828 34.806L126.679 29.3542ZM122.734 37.2471C123.28 38.0322 123.93 38.506 124.686 38.6684C125.454 38.8331 126.212 38.6559 126.96 38.1367C127.707 37.6174 128.134 36.9717 128.241 36.1995C128.36 35.4296 128.147 34.6521 127.602 33.867L126.449 32.207L121.582 35.5872L122.734 37.2471Z" fill="white"/>
<path d="M127.592 49.6146L129.234 46.8229L129.188 46.7238L128.379 44.9767L125.963 46.0956L125.033 44.0884L133.707 40.0717L135.445 43.8261C135.801 44.5943 135.981 45.3186 135.985 45.9989C135.993 46.6874 135.832 47.2935 135.503 47.8172C135.174 48.3409 134.687 48.7519 134.042 49.0503C133.398 49.3487 132.768 49.4499 132.152 49.3541C131.548 49.2627 130.99 48.9894 130.478 48.5342L128.591 51.7705L127.592 49.6146ZM133.101 47.0182C133.589 46.7925 133.888 46.4635 133.999 46.031C134.118 45.5947 134.037 45.075 133.758 44.472L133.001 42.8364L129.977 44.2365L130.735 45.8721C131.014 46.4751 131.359 46.8723 131.768 47.0638C132.178 47.2553 132.622 47.2401 133.101 47.0182Z" fill="white"/>
<path d="M132.651 59.4176L130.945 59.9079L128.902 52.7948L138.088 50.1551L140.083 57.0976L138.377 57.5878L136.989 52.7583L134.994 53.3315L136.22 57.5967L134.566 58.0718L133.341 53.8066L131.215 54.4175L132.651 59.4176Z" fill="white"/>
<path d="M134.028 67.1506L133.499 62.7444L131.365 62.148L131.095 59.8975L141.093 62.9881L141.353 65.1573L132.372 70.5401L132.096 68.2353L134.028 67.1506ZM135.613 66.259L139.066 64.318L135.252 63.2493L135.613 66.259Z" fill="white"/>
</svg>
