<svg width="50" height="50" viewBox="0 0 50 50" fill="none" xmlns="http://www.w3.org/2000/svg">
<path d="M0.703125 4.17122C-0.234375 3.23372 -0.234375 1.6734 0.703125 0.703125C1.6734 -0.234375 3.20094 -0.234375 4.17122 0.703125L24.982 21.5488L45.8277 0.703125C46.7652 -0.234375 48.3255 -0.234375 49.2608 0.703125C50.2311 1.6734 50.2311 3.2359 49.2608 4.17122L28.4501 24.9842L49.2608 45.8299C50.2311 46.7674 50.2311 48.3277 49.2608 49.298C48.3233 50.2355 46.763 50.2355 45.8277 49.298L24.982 28.4523L4.17122 49.298C3.20094 50.2355 1.6734 50.2355 0.703125 49.298C-0.234375 48.3277 -0.234375 46.7652 0.703125 45.8299L21.5139 24.9842L0.703125 4.17122Z" fill="#F70E4D"/>
</svg>
