<svg width="17" height="17" viewBox="0 0 17 17" fill="none" xmlns="http://www.w3.org/2000/svg">
    <path d="M0.239073 1.41827C-0.0796909 1.09951 -0.0796909 0.568982 0.239073 0.239073C0.568982 -0.0796909 1.08837 -0.0796909 1.41827 0.239073L8.49423 7.32692L15.5821 0.239073C15.9008 -0.0796909 16.4314 -0.0796909 16.7494 0.239073C17.0793 0.568982 17.0793 1.10025 16.7494 1.41827L9.67343 8.49497L16.7494 15.5828C17.0793 15.9016 17.0793 16.4321 16.7494 16.762C16.4306 17.0808 15.9001 17.0808 15.5821 16.762L8.49423 9.67418L1.41827 16.762C1.08837 17.0808 0.568982 17.0808 0.239073 16.762C-0.0796909 16.4321 -0.0796909 15.9008 0.239073 15.5828L7.31503 8.49497L0.239073 1.41827Z" fill="white"/>
</svg>
