<svg width="20" height="19" viewBox="0 0 20 19" fill="none" xmlns="http://www.w3.org/2000/svg">
<g clip-path="url(#clip0)">
<path d="M13.3937 0H6.30615C3.04472 0 0.399902 2.64482 0.399902 5.90625V12.9937C0.399902 16.2552 3.04472 18.9 6.30615 18.9H13.3937C16.6551 18.9 19.2999 16.2552 19.2999 12.9937V5.90625C19.2999 2.64482 16.6551 0 13.3937 0ZM17.528 12.9937C17.528 15.2736 15.6735 17.1281 13.3937 17.1281H6.30615C4.02634 17.1281 2.17178 15.2736 2.17178 12.9937V5.90625C2.17178 3.62644 4.02634 1.77187 6.30615 1.77187H13.3937C15.6735 1.77187 17.528 3.62644 17.528 5.90625V12.9937Z" fill="white"/>
<path d="M9.85 4.72498C7.24062 4.72498 5.125 6.84059 5.125 9.44998C5.125 12.0594 7.24062 14.175 9.85 14.175C12.4594 14.175 14.575 12.0594 14.575 9.44998C14.575 6.84059 12.4594 4.72498 9.85 4.72498ZM9.85 12.4031C8.22224 12.4031 6.89687 11.0777 6.89687 9.44998C6.89687 7.82103 8.22224 6.49685 9.85 6.49685C11.4778 6.49685 12.8031 7.82103 12.8031 9.44998C12.8031 11.0777 11.4778 12.4031 9.85 12.4031Z" fill="white"/>
<path d="M14.9294 5.0003C15.2771 5.0003 15.559 4.71842 15.559 4.3707C15.559 4.02297 15.2771 3.74109 14.9294 3.74109C14.5817 3.74109 14.2998 4.02297 14.2998 4.3707C14.2998 4.71842 14.5817 5.0003 14.9294 5.0003Z" fill="white"/>
</g>
<defs>
<clipPath id="clip0">
<rect width="18.9" height="18.9" fill="white" transform="translate(0.399902)"/>
</clipPath>
</defs>
</svg>
