<svg width="20" height="21" viewBox="0 0 20 21"
     xmlns="http://www.w3.org/2000/svg">
    <g clip-path="url(#clip0)">
        <path
                d="M7.49451 0.878906H3.48582C2.82276 0.878906 2.2832 1.41847 2.2832 2.08152V18.9181C2.2832 19.5812 2.82276 20.1207 3.48582 20.1207H7.49454C8.1576 20.1207 8.69716 19.5812 8.69716 18.9181V2.08152C8.69712 1.41847 8.15756 0.878906 7.49451 0.878906Z"
                fill="#F70E4D"  fill-opacity="0.7"/>
        <path
                d="M17.1154 0.878906H13.1067C12.4436 0.878906 11.9041 1.41847 11.9041 2.08152V18.9181C11.9041 19.5812 12.4436 20.1207 13.1067 20.1207H17.1154C17.7784 20.1207 18.318 19.5812 18.318 18.9181V2.08152C18.318 1.41847 17.7784 0.878906 17.1154 0.878906Z"
                fill="#F70E4D"  fill-opacity="0.7" />
    </g>
    <defs>
        <clipPath id="clip0">
            <rect width="19.2418" height="19.2418" fill="white"
                  transform="translate(0.679688 0.878906)" />
        </clipPath>
    </defs>
</svg>
