<svg width="23" height="23" viewBox="0 0 23 23" fill="none" xmlns="http://www.w3.org/2000/svg">
<path d="M20.359 0.925757C19.1224 -0.308586 17.12 -0.308586 15.8835 0.925757L14.7632 2.05219L2.83777 13.9713L2.81243 13.9968C2.80629 14.003 2.80629 14.0095 2.79976 14.0095C2.78708 14.0285 2.76808 14.0473 2.7556 14.0663C2.7556 14.0727 2.74907 14.0727 2.74907 14.079C2.7364 14.098 2.73026 14.1107 2.71739 14.1297C2.71125 14.136 2.71125 14.1422 2.70491 14.1487C2.69858 14.1677 2.69224 14.1804 2.68571 14.1994C2.68571 14.2055 2.67957 14.2055 2.67957 14.2121L0.0336717 22.1686C-0.043945 22.3951 0.0150595 22.646 0.185539 22.8141C0.30533 22.9323 0.4669 22.9984 0.635003 22.9978C0.70371 22.9966 0.771822 22.9859 0.837559 22.9661L8.78793 20.3139C8.79406 20.3139 8.79406 20.3139 8.8006 20.3078C8.8206 20.3018 8.8398 20.2933 8.85742 20.2822C8.86237 20.2816 8.86673 20.2794 8.87029 20.2761C8.8891 20.2634 8.91445 20.2505 8.93346 20.2379C8.95227 20.2254 8.97147 20.2064 8.99048 20.1937C8.99682 20.1872 9.00296 20.1872 9.00296 20.181C9.00949 20.1747 9.02216 20.1686 9.0285 20.1557L22.0742 7.10995C23.3086 5.87343 23.3086 3.87103 22.0742 2.63471L20.359 0.925757ZM8.58537 18.8263L4.17983 14.421L15.2064 3.39444L19.6119 7.79979L8.58537 18.8263ZM3.55929 15.5919L7.40805 19.4405L1.62877 21.3647L3.55929 15.5919ZM21.1818 6.22369L20.5108 6.90106L16.1051 2.49532L16.7826 1.81815C17.5238 1.07762 18.725 1.07762 19.4664 1.81815L21.188 3.53978C21.9236 4.28426 21.9208 5.48277 21.1818 6.22369Z" fill="white"/>
</svg>
