<svg width="21" height="21" viewBox="0 0 21 21" fill="none" xmlns="http://www.w3.org/2000/svg">
<g clip-path="url(#clip0)">
<path d="M20.4279 15.4119L17.4973 12.4813C16.4506 11.4346 14.6713 11.8533 14.2527 13.2139C13.9387 14.1559 12.892 14.6793 11.95 14.4699C9.85673 13.9466 7.03078 11.2253 6.50746 9.02733C6.19347 8.08531 6.82145 7.03866 7.76344 6.72471C9.12408 6.30605 9.54274 4.52675 8.49609 3.4801L5.56548 0.54949C4.72816 -0.183163 3.47218 -0.183163 2.73953 0.54949L0.7509 2.53812C-1.23773 4.63141 0.96023 10.1786 5.87947 15.0979C10.7987 20.0171 16.3459 22.3198 18.4392 20.2265L20.4279 18.2378C21.1606 17.4005 21.1606 16.1445 20.4279 15.4119Z" fill="white" fill-opacity="0.7"/>
</g>
<defs>
<clipPath id="clip0">
<rect width="21" height="21" fill="white"/>
</clipPath>
</defs>
</svg>
