<svg width="803" height="831" viewBox="0 0 803 831" fill="none" xmlns="http://www.w3.org/2000/svg">
<path d="M515.55 521.889C452.276 580.019 383.558 620.126 323.641 638.008C263.653 655.912 212.834 651.455 184.903 621.052C156.971 590.649 156.83 539.635 179.744 481.376C202.631 423.187 248.408 358.108 311.682 299.979C374.956 241.849 443.675 201.742 503.591 183.86C563.58 165.957 614.399 170.413 642.33 200.816C670.261 231.219 670.402 282.233 647.488 340.492C624.601 398.681 578.824 463.76 515.55 521.889Z" stroke="white" stroke-opacity="0.2" stroke-width="2"/>
<path d="M654.627 530.493C591.353 588.622 522.634 628.729 462.718 646.611C402.729 664.515 351.91 660.058 323.979 629.655C296.048 599.252 295.906 548.238 318.821 489.979C341.707 431.79 387.484 366.711 450.758 308.582C514.032 250.452 582.751 210.345 642.667 192.463C702.656 174.56 753.475 179.016 781.406 209.419C809.337 239.822 809.478 290.836 786.564 349.095C763.677 407.284 717.901 472.363 654.627 530.493Z" stroke="white" stroke-opacity="0.2" stroke-width="2"/>
</svg>
