<svg width="13" height="13" viewBox="0 0 13 13" fill="#F70E4D" xmlns="http://www.w3.org/2000/svg">
    <path d="M1.71301 8.26843C0.247274 7.54505 0.247273 5.45495 1.71301 4.73157C2.5902 4.29865 3.1982 3.46181 3.33886 2.49378C3.5739 0.876241 5.5617 0.230366 6.70262 1.40083C7.38542 2.10131 8.36917 2.42095 9.3333 2.25559C10.9443 1.97928 12.1728 3.6702 11.4122 5.11697C10.957 5.98281 10.957 7.01719 11.4122 7.88303C12.1728 9.3298 10.9443 11.0207 9.3333 10.7444C8.36917 10.5791 7.38542 10.8987 6.70262 11.5992C5.5617 12.7696 3.5739 12.1238 3.33886 10.5062C3.1982 9.53819 2.5902 8.70135 1.71301 8.26843Z" stroke="#848484"/>
</svg>
