<svg width="13" height="13" viewBox="0 0 13 13" fill="none" xmlns="http://www.w3.org/2000/svg">
<path d="M1.49173 8.7168C-0.345632 7.81001 -0.345632 5.18999 1.49173 4.2832C2.22135 3.92311 2.72706 3.22706 2.84406 2.42188C3.13869 0.394232 5.63048 -0.4154 7.06066 1.05182C7.62859 1.63446 8.44685 1.90032 9.24877 1.76278C11.2682 1.41642 12.8082 3.53606 11.8548 5.34964C11.4762 6.06982 11.4762 6.93018 11.8548 7.65036C12.8082 9.46394 11.2682 11.5836 9.24877 11.2372C8.44685 11.0997 7.62859 11.3655 7.06066 11.9482C5.63048 13.4154 3.13869 12.6058 2.84406 10.5781C2.72706 9.77294 2.22135 9.07689 1.49173 8.7168Z" fill="#F70E4D"/>
</svg>
