<svg width="16" height="19" viewBox="0 0 16 19" fill="none" xmlns="http://www.w3.org/2000/svg">
<path d="M5.74507 18.6674C3.0073 18.6516 0.742676 13.0629 0.742676 10.2167C0.742676 5.56743 4.23041 4.54958 5.57455 4.54958C6.1803 4.54958 6.82712 4.78746 7.39762 4.99797C7.79657 5.1448 8.20917 5.29638 8.43864 5.29638C8.576 5.29638 8.89967 5.16744 9.18545 5.0543C9.7949 4.81168 10.5533 4.51013 11.4364 4.51013C11.438 4.51013 11.4401 4.51013 11.4416 4.51013C12.1011 4.51013 14.1005 4.65485 15.3025 6.46003L15.5841 6.88316L15.1789 7.18894C14.5999 7.62576 13.5436 8.42257 13.5436 10.0009C13.5436 11.8703 14.7399 12.5892 15.3146 12.935C15.5683 13.0876 15.8309 13.245 15.8309 13.5892C15.8309 13.8139 14.0373 18.6395 11.4327 18.6395C10.7954 18.6395 10.3449 18.4479 9.94748 18.279C9.54541 18.1079 9.19856 17.9606 8.62543 17.9606C8.33492 17.9606 7.96755 18.0979 7.57863 18.2437C7.04714 18.4421 6.44556 18.6674 5.76296 18.6674H5.74507Z" fill="white"/>
<path d="M11.7125 0.272095C11.7803 2.71794 10.0311 4.41476 8.28403 4.30834C7.99614 2.35647 10.0309 0.272095 11.7125 0.272095Z" fill="white"/>
</svg>
