<svg width="24" height="23" viewBox="0 0 24 23" fill="none" xmlns="http://www.w3.org/2000/svg">
<g clip-path="url(#clip0)">
<path d="M21.1292 19.3996L19.4838 16.6568C18.7238 15.3909 18.3223 13.9409 18.3223 12.4651V10.0625C18.3223 7.02938 16.2983 4.46393 13.5306 3.63687V1.91668C13.5306 0.859625 12.6709 0 11.6139 0C10.5568 0 9.69721 0.859625 9.69721 1.91668V3.63687C6.92957 4.46393 4.90557 7.02938 4.90557 10.0625V12.4651C4.90557 13.9409 4.50401 15.3899 3.74501 16.6559L2.09957 19.3986C2.01044 19.5472 2.00851 19.7312 2.09382 19.8816C2.17913 20.0321 2.33725 20.125 2.50975 20.125H20.7181C20.8906 20.125 21.0496 20.0321 21.1349 19.8826C21.2203 19.7331 21.2174 19.5471 21.1292 19.3996Z" fill="white"/>
<path d="M8.5957 21.0833C9.1362 22.2122 10.2805 23 11.6135 23C12.9465 23 14.0908 22.2122 14.6313 21.0833H8.5957Z" fill="white"/>
</g>
<defs>
<clipPath id="clip0">
<rect width="23" height="23" fill="white" transform="translate(0.113281)"/>
</clipPath>
</defs>
</svg>
