<svg width="22" height="22" viewBox="0 0 22 22" fill="none" xmlns="http://www.w3.org/2000/svg">
<path d="M0.605469 0.799372V6.09073H2.1173V1.55529H6.65275V0.043457H1.36138C0.943552 0.043457 0.605469 0.381541 0.605469 0.799372H0.605469Z" fill="white"/>
<path d="M21.0148 0.043457H15.7234V1.55529H20.2588V6.09073H21.7707V0.799372C21.7707 0.381541 21.4326 0.043457 21.0148 0.043457V0.043457Z" fill="white"/>
<path d="M20.2588 19.6971H15.7234V21.2089H21.0148C21.4326 21.2089 21.7707 20.8708 21.7707 20.453V15.1616H20.2588V19.6971Z" fill="white"/>
<path d="M2.1173 15.1616H0.605469V20.453C0.605469 20.8708 0.943552 21.2089 1.36138 21.2089H6.65275V19.6971H2.1173V15.1616Z" fill="white"/>
</svg>
