<svg width="33" height="33" viewBox="0 0 33 33" fill="none" xmlns="http://www.w3.org/2000/svg">
<g clip-path="url(#clip0)">
<path d="M29.3455 0H3.52146C1.57661 0 0 1.57661 0 3.52146V29.3455C0 31.2904 1.57661 32.867 3.52146 32.867H29.3455C31.2904 32.867 32.867 31.2904 32.867 29.3455V3.52146C32.867 1.57661 31.2904 0 29.3455 0ZM30.5193 29.3455C30.5193 29.9938 29.9938 30.5194 29.3455 30.5194H3.52146C2.87316 30.5194 2.34762 29.9938 2.34762 29.3455V3.52146C2.34762 2.87316 2.87316 2.34762 3.52146 2.34762H29.3455C29.9938 2.34762 30.5194 2.87316 30.5194 3.52146V29.3455H30.5193Z" fill="white"/>
<path d="M10.5644 7.04297H7.04298C6.39468 7.04297 5.86914 7.56851 5.86914 8.21681C5.86914 8.86512 6.39468 9.39066 7.04298 9.39066H10.5644C11.2128 9.39066 11.7383 8.86512 11.7383 8.21681C11.7383 7.56851 11.2128 7.04297 10.5644 7.04297Z" fill="white"/>
<path d="M25.8242 7.04297H15.2598C14.6115 7.04297 14.0859 7.56851 14.0859 8.21681C14.0859 8.86512 14.6115 9.39066 15.2598 9.39066H25.8242C26.4725 9.39066 26.998 8.86512 26.998 8.21681C26.998 7.56851 26.4724 7.04297 25.8242 7.04297Z" fill="white"/>
<path d="M10.5644 15.2598H7.04298C6.39468 15.2598 5.86914 15.7853 5.86914 16.4336C5.86914 17.0819 6.39468 17.6074 7.04298 17.6074H10.5644C11.2128 17.6074 11.7383 17.0818 11.7383 16.4335C11.7383 15.7852 11.2128 15.2598 10.5644 15.2598Z" fill="white"/>
<path d="M25.8242 15.2598H15.2598C14.6115 15.2598 14.0859 15.7853 14.0859 16.4336C14.0859 17.0819 14.6115 17.6074 15.2598 17.6074H25.8242C26.4725 17.6074 26.998 17.0818 26.998 16.4335C26.998 15.7852 26.4724 15.2598 25.8242 15.2598Z" fill="white"/>
<path d="M10.5644 23.4766H7.04298C6.39468 23.4766 5.86914 24.0021 5.86914 24.6504C5.86914 25.2987 6.39468 25.8242 7.04298 25.8242H10.5644C11.2128 25.8242 11.7383 25.2987 11.7383 24.6504C11.7383 24.0021 11.2128 23.4766 10.5644 23.4766Z" fill="white"/>
<path d="M25.8242 23.4766H15.2598C14.6115 23.4766 14.0859 24.0021 14.0859 24.6504C14.0859 25.2987 14.6115 25.8242 15.2598 25.8242H25.8242C26.4725 25.8242 26.998 25.2987 26.998 24.6504C26.998 24.0021 26.4724 23.4766 25.8242 23.4766Z" fill="white"/>
</g>
<defs>
<clipPath id="clip0">
<rect width="32.867" height="32.867" fill="white"/>
</clipPath>
</defs>
</svg>
