<svg width="48" height="48" viewBox="0 0 48 48" fill="none" xmlns="http://www.w3.org/2000/svg">
<g clip-path="url(#clip0)">
<path d="M47.153 7.25155C46.0211 6.11934 44.1887 6.11925 43.0567 7.25145L15.7046 34.6035L5.44333 24.3422C4.3114 23.21 2.47902 23.2099 1.347 24.3421C0.217667 25.4715 0.217667 27.3091 1.347 28.4384L13.6566 40.748C14.7883 41.8797 16.621 41.8799 17.7528 40.748L47.153 11.3477C48.2823 10.2184 48.2823 8.38069 47.153 7.25155Z" fill="#37E7FF"/>
<path d="M47.1525 7.25155C46.0206 6.11934 44.1882 6.11925 43.0562 7.25145L23.0908 27.2168V35.4093L47.1525 11.3477C48.2817 10.2184 48.2817 8.38069 47.1525 7.25155Z" fill="#37E7FF"/>
</g>
<defs>
<clipPath id="clip0">
<rect width="47.5" height="47.5" fill="white" transform="translate(0.5 0.249512)"/>
</clipPath>
</defs>
</svg>
