<svg width="36" height="36" viewBox="0 0 36 36" fill="none" xmlns="http://www.w3.org/2000/svg">
<path d="M0.631649 6.70317V6.70316C0.631586 3.35611 3.35576 0.631792 6.70317 0.631579C6.70318 0.631579 6.70319 0.631579 6.70321 0.631579L29.2969 0.63172C30.9198 0.63172 32.4426 1.26241 33.5902 2.40994C34.7377 3.55752 35.3684 5.08023 35.3684 6.70324V29.2969C35.3684 32.6442 32.6442 35.3684 29.2969 35.3684H6.70324C3.35593 35.3684 0.631643 32.6442 0.631579 29.297L0.631649 6.70317ZM6.70325 1.4778H6.70321C3.82139 1.47796 1.4778 3.82137 1.47787 6.7031C1.47787 6.70311 1.47787 6.70311 1.47787 6.70312L1.4778 29.2969C1.47788 32.1787 3.82143 34.5222 6.70324 34.5222H29.2969C32.1787 34.5222 34.5222 32.1787 34.5222 29.2969V6.70324C34.5222 5.30867 33.9779 3.9944 32.9918 3.00828L32.5452 3.45487L32.9918 3.00826C32.0057 2.02223 30.6914 1.47794 29.2969 1.47794L6.70325 1.4778Z" stroke="white" stroke-width="1.26316"/>
<path d="M18.4233 19.0836L18.4233 20.6084L19.5015 19.5302L23.2926 15.739C23.2926 15.7389 23.2926 15.7389 23.2926 15.7389C23.4578 15.5737 23.7257 15.5738 23.8909 15.739C24.0562 15.9042 24.0562 16.1721 23.891 16.3373C23.891 16.3373 23.891 16.3373 23.8909 16.3373L18.2993 21.9291C18.2199 22.0085 18.1123 22.0531 18.0001 22.0531C17.8879 22.0531 17.7803 22.0085 17.701 21.9292L17.701 21.9291L12.1091 16.3374C12.1091 16.3374 12.1091 16.3374 12.1091 16.3374C11.9439 16.1722 11.9439 15.9043 12.1091 15.7391L11.6626 15.2925L12.1091 15.7391C12.2744 15.5738 12.5423 15.5739 12.7075 15.7391L12.7075 15.7391L16.4989 19.5304L17.5771 20.6086L17.5771 19.0838L17.577 7.83276C17.577 7.59911 17.7664 7.40966 18.0001 7.40966C18.2338 7.40966 18.4232 7.59911 18.4232 7.83276L18.4233 19.0836Z" stroke="white" stroke-width="1.26316"/>
<path d="M7.83301 27.7441H28.1674C28.4011 27.7441 28.5905 27.9335 28.5905 28.1672C28.5905 28.4009 28.401 28.5903 28.1674 28.5903H7.83301C7.59935 28.5903 7.4099 28.4009 7.4099 28.1672C7.4099 27.9336 7.59935 27.7441 7.83301 27.7441Z" stroke="white" stroke-width="1.26316"/>
</svg>
