<svg width="22" height="22" viewBox="0 0 22 22" fill="none" xmlns="http://www.w3.org/2000/svg">
<g clip-path="url(#clip0)">
<path d="M21.8358 10.5701C21.6394 10.351 16.916 5.19922 11 5.19922C5.084 5.19922 0.360701 10.351 0.164291 10.5701C-0.0547637 10.8149 -0.0547637 11.1851 0.164291 11.4299C0.360701 11.649 5.08408 16.8008 11 16.8008C16.916 16.8008 21.6393 11.649 21.8358 11.4299C22.0548 11.1851 22.0548 10.8149 21.8358 10.5701ZM11 15.5117C8.51252 15.5117 6.4883 13.4875 6.4883 11C6.4883 8.5125 8.51252 6.48828 11 6.48828C13.4875 6.48828 15.5117 8.5125 15.5117 11C15.5117 13.4875 13.4875 15.5117 11 15.5117Z" fill="white" fill-opacity="0.45"/>
<path d="M11.6445 9.71094C11.6445 9.06254 11.9664 8.49213 12.4561 8.14129C12.0167 7.91635 11.5266 7.77734 11 7.77734C9.22311 7.77734 7.77734 9.22311 7.77734 11C7.77734 12.7769 9.22311 14.2227 11 14.2227C12.5909 14.2227 13.9076 13.061 14.1677 11.5432C12.8698 11.9611 11.6445 10.9795 11.6445 9.71094Z" fill="white" fill-opacity="0.45"/>
</g>
<defs>
<clipPath id="clip0">
<rect width="22" height="22" fill="white"/>
</clipPath>
</defs>
</svg>
