<svg width="20" height="19" viewBox="0 0 20 19" fill="none" xmlns="http://www.w3.org/2000/svg">
<g clip-path="url(#clip0)">
<path d="M18.1806 0.272095H1.77441C1.21261 0.272376 0.757184 0.728087 0.757324 1.29002V17.6962C0.757606 18.258 1.21332 18.7134 1.77525 18.7133H18.1806C18.7426 18.7134 19.1984 18.2578 19.1985 17.6958C19.1985 17.6956 19.1985 17.6955 19.1985 17.6953V1.28918C19.1982 0.727384 18.7425 0.271954 18.1806 0.272095Z" fill="#4267B2"/>
<path d="M13.4898 18.7132V11.5817H15.894L16.2541 8.79031H13.4898V7.01249C13.4898 6.20616 13.7136 5.65675 14.8698 5.65675H16.3352V3.16687C16.0802 3.13296 15.2055 3.05713 14.1877 3.05713C12.0627 3.05713 10.6083 4.35377 10.6083 6.73602V8.79031H8.21313V11.5817H10.6083V18.7132H13.4898Z" fill="white"/>
</g>
<defs>
<clipPath id="clip0">
<rect width="18.4412" height="18.4412" fill="white" transform="translate(0.757324 0.272095)"/>
</clipPath>
</defs>
</svg>
