<svg width="20" height="19" viewBox="0 0 20 19" fill="none" xmlns="http://www.w3.org/2000/svg">
<g clip-path="url(#clip0)">
<path d="M17.0375 0H2.8625C1.55958 0 0.5 1.05958 0.5 2.3625V16.5375C0.5 17.8404 1.55958 18.9 2.8625 18.9H9.95V12.4031H7.5875V9.45H9.95V7.0875C9.95 5.13017 11.5364 3.54375 13.4937 3.54375H15.8562V6.49687H14.675C14.023 6.49687 13.4937 6.43545 13.4937 7.0875V9.45H16.4469L15.2656 12.4031H13.4937V18.9H17.0375C18.3404 18.9 19.4 17.8404 19.4 16.5375V2.3625C19.4 1.05958 18.3404 0 17.0375 0Z" fill="white"/>
</g>
<defs>
<clipPath id="clip0">
<rect width="18.9" height="18.9" fill="white" transform="translate(0.5)"/>
</clipPath>
</defs>
</svg>
