<svg width="19" height="19" viewBox="0 0 19 19" fill="none" xmlns="http://www.w3.org/2000/svg">
<path d="M4.69715 9.49264C4.69715 8.57898 4.94888 7.72308 5.38621 6.99023V3.88159H2.27757C1.04378 5.48396 0.375 7.43681 0.375 9.49264C0.375 11.5485 1.04378 13.5013 2.27757 15.1037H5.38621V11.9951C4.94888 11.2622 4.69715 10.4063 4.69715 9.49264Z" fill="#FBBD00"/>
<path d="M9.59565 14.3911L7.43457 16.5521L9.59565 18.7132C11.6515 18.7132 13.6043 18.0444 15.2067 16.8106V13.7053H12.1014C11.3621 14.1442 10.5026 14.3911 9.59565 14.3911Z" fill="#0F9D58"/>
<path d="M5.38622 11.9951L2.27759 15.1038C2.52186 15.421 2.78785 15.7248 3.07567 16.0127C4.81721 17.7542 7.1327 18.7133 9.5956 18.7133V14.3911C7.80825 14.3911 6.24172 13.4287 5.38622 11.9951Z" fill="#31AA52"/>
<path d="M18.8163 9.49266C18.8163 8.93168 18.7655 8.36966 18.6653 7.82226L18.5842 7.37927H9.5957V11.7014H13.9702C13.5454 12.5464 12.8922 13.2359 12.1014 13.7054L15.2067 16.8107C15.524 16.5664 15.8278 16.3004 16.1156 16.0126C17.8572 14.271 18.8163 11.9556 18.8163 9.49266Z" fill="#3C79E6"/>
<path d="M13.0594 6.02895L13.4414 6.41095L16.4976 3.35476L16.1156 2.97275C14.3741 1.23122 12.0586 0.272095 9.59565 0.272095L7.43457 2.43317L9.59565 4.59425C10.904 4.59425 12.1342 5.10375 13.0594 6.02895Z" fill="#CF2D48"/>
<path d="M9.59564 4.59425V0.272095C7.13273 0.272095 4.81725 1.23122 3.07567 2.97272C2.78785 3.26054 2.52186 3.56435 2.27759 3.88163L5.38622 6.99027C6.24176 5.55664 7.80828 4.59425 9.59564 4.59425Z" fill="#EB4132"/>
</svg>
