<svg width="21" height="21" viewBox="0 0 21 21" fill="none" xmlns="http://www.w3.org/2000/svg">
<g clip-path="url(#clip0)">
<path d="M14.2313 0H6.46875C2.89671 0 0 2.89671 0 6.46875V14.2313C0 17.8033 2.89671 20.7 6.46875 20.7H14.2313C17.8033 20.7 20.7 17.8033 20.7 14.2313V6.46875C20.7 2.89671 17.8033 0 14.2313 0ZM18.7594 14.2313C18.7594 16.7282 16.7282 18.7594 14.2313 18.7594H6.46875C3.97181 18.7594 1.94063 16.7282 1.94063 14.2313V6.46875C1.94063 3.97181 3.97181 1.94063 6.46875 1.94063H14.2313C16.7282 1.94063 18.7594 3.97181 18.7594 6.46875V14.2313Z" fill="white" fill-opacity="0.7"/>
<path d="M10.3508 5.17499C7.49289 5.17499 5.17578 7.49209 5.17578 10.35C5.17578 13.2079 7.49289 15.525 10.3508 15.525C13.2087 15.525 15.5258 13.2079 15.5258 10.35C15.5258 7.49209 13.2087 5.17499 10.3508 5.17499ZM10.3508 13.5844C8.56799 13.5844 7.11641 12.1328 7.11641 10.35C7.11641 8.56591 8.56799 7.11561 10.3508 7.11561C12.1336 7.11561 13.5852 8.56591 13.5852 10.35C13.5852 12.1328 12.1336 13.5844 10.3508 13.5844Z" fill="white" fill-opacity="0.7"/>
<path d="M15.9122 5.47643C16.2931 5.47643 16.6018 5.1677 16.6018 4.78686C16.6018 4.40602 16.2931 4.09729 15.9122 4.09729C15.5314 4.09729 15.2227 4.40602 15.2227 4.78686C15.2227 5.1677 15.5314 5.47643 15.9122 5.47643Z" fill="white" fill-opacity="0.7"/>
</g>
<defs>
<clipPath id="clip0">
<rect width="20.7" height="20.7" fill="white"/>
</clipPath>
</defs>
</svg>
