<svg width="131" height="44" viewBox="0 0 131 44" fill="none" xmlns="http://www.w3.org/2000/svg">
<path fill-rule="evenodd" clip-rule="evenodd" d="M13.3158 0.494447H0.212891V16.9176H6.88794V5.97458H12.9861C15.8704 5.97458 18.1641 6.78493 19.8672 8.40562C21.5978 9.99884 22.4631 12.1689 22.4631 14.9159C22.4631 15.6201 22.4062 16.2874 22.2924 16.9176H29.1058C29.1823 16.2707 29.2205 15.6034 29.2205 14.9159C29.2205 12.0316 28.5475 9.50439 27.2015 7.33431C25.883 5.16424 24.0151 3.48861 21.5978 2.30743C19.2079 1.09877 16.4473 0.494447 13.3158 0.494447ZM54.2796 16.9176H34.2545V0.494447H56.0514V5.85097H40.8883V12.114H54.2796V16.9176ZM68.1612 16.9176H61.8982V0.494447H67.4195L77.3112 16.9176H70.9079L68.1612 12.4024V16.9176ZM88.1156 16.9176L88.104 12.0316L85.1949 16.9176H79.105L88.8456 0.494447H94.3258L94.3727 16.9176H88.1156ZM130.88 16.9176C130.961 16.2664 131.001 15.5991 131.001 14.9159C131.001 12.0865 130.314 9.5456 128.94 7.29311C127.567 5.01316 125.685 3.22765 123.295 1.93659C120.906 0.64553 118.214 0 115.219 0C112.225 0 109.52 0.64553 107.102 1.93659C104.712 3.22765 102.831 5.01316 101.457 7.29311C100.111 9.5456 99.4383 12.0865 99.4383 14.9159C99.4383 15.5991 99.4775 16.2664 99.556 16.9176H106.371C106.254 16.2796 106.196 15.6124 106.196 14.9159C106.196 13.1303 106.58 11.5371 107.349 10.1362C108.146 8.73525 109.231 7.65021 110.605 6.88107C111.978 6.08446 113.516 5.68616 115.219 5.68616C116.923 5.68616 118.461 6.08446 119.834 6.88107C121.208 7.65021 122.279 8.73525 123.048 10.1362C123.845 11.5371 124.243 13.1303 124.243 14.9159C124.243 15.6124 124.182 16.2796 124.061 16.9176H130.88Z" fill="#F70E4D"/>
<path d="M2.95876 38.3319C2.03415 38.3319 1.37151 38.3011 0.970844 38.2395L0.785921 28.3769C0.96057 28.3564 1.5102 28.3461 2.43481 28.3461C3.35943 28.3461 4.11453 28.4283 4.70012 28.5927C5.2857 28.7571 5.81993 29.019 6.30278 29.3786C7.30958 30.1286 7.81298 31.4025 7.81298 33.2003C7.81298 34.803 7.37122 36.0615 6.4877 36.9758C5.61446 37.8799 4.43814 38.3319 2.95876 38.3319ZM6.37983 33.3698C6.37983 31.8802 6.03053 30.8374 5.33194 30.2416C4.63334 29.6354 3.58544 29.3324 2.18825 29.3324L2.2653 37.284C3.40566 37.284 4.35596 37.0118 5.11619 36.4673C5.95862 35.8817 6.37983 34.8492 6.37983 33.3698ZM33.9812 28.2845C35.2346 28.2845 36.1746 28.5721 36.8013 29.1474C37.428 29.7228 37.7413 30.4162 37.7413 31.2278C37.7413 32.4504 37.1198 33.3904 35.8767 34.0479L37.9725 38.0391L36.601 38.5323L34.6747 34.3561L33.2723 34.3407L33.3802 38.2703L32.0549 38.3628L31.8854 28.5156C32.9847 28.3615 33.6833 28.2845 33.9812 28.2845ZM33.0874 29.5173V33.1695C33.2929 33.1901 33.5549 33.2003 33.8733 33.2003C34.4898 33.2003 35.0856 33.0308 35.6609 32.6918C36.2362 32.3425 36.5239 31.8751 36.5239 31.2895C36.5239 30.7039 36.303 30.2313 35.8613 29.8717C35.4298 29.5122 34.9469 29.3324 34.4127 29.3324C33.8785 29.3324 33.4367 29.394 33.0874 29.5173ZM61.7692 28.454L66.4385 28.2074L66.5001 29.5789L63.1407 29.5635L63.2024 32.5223L65.8991 32.4761L65.8837 33.8322L63.2486 33.7705V37.0529L66.5772 36.9604V38.3628L61.9541 38.3011L61.7692 28.454ZM94.9442 35.6814L92.1241 35.6197L91.4769 38.5169L90.1516 38.3165L92.6943 28.4232L93.9117 28.3307L97.117 38.3165L95.7763 38.5169L94.9442 35.6814ZM92.3398 34.6797L94.6668 34.7414L93.3415 30.1799L92.3398 34.6797ZM129.504 38.2703L128.302 38.3936L128.024 31.5977L125.913 38.2857L124.881 38.3165L122.43 31.4898L122.353 38.4706L120.905 38.3936L121.413 28.192L122.507 28.2382L125.374 36.4827L127.808 28.2228L129.149 28.2537L129.504 38.2703Z" fill="#37E7FF" fill-opacity="0.8"/>
</svg>
