<svg width="27" height="22" viewBox="0 0 27 22" fill="none" xmlns="http://www.w3.org/2000/svg">
<path d="M24.4169 0.971436H2.52591C1.13304 0.971436 0 2.10447 0 3.49735V18.6527C0 20.0456 1.13304 21.1786 2.52591 21.1786H24.4169C25.8098 21.1786 26.9429 20.0456 26.9429 18.6527V3.49735C26.9429 2.10447 25.8098 0.971436 24.4169 0.971436ZM24.4169 2.65536C24.5313 2.65536 24.6402 2.67909 24.7397 2.72054L13.4714 12.4868L2.20314 2.72054C2.30263 2.67915 2.41146 2.65536 2.52585 2.65536H24.4169ZM24.4169 19.4946H2.52591C2.06136 19.4946 1.68392 19.1172 1.68392 18.6526V4.49962L12.9197 14.2373C13.0784 14.3746 13.2749 14.4429 13.4714 14.4429C13.6679 14.4429 13.8644 14.3746 14.0232 14.2373L25.2589 4.49962V18.6527C25.2589 19.1172 24.8815 19.4946 24.4169 19.4946Z" fill="white"/>
</svg>
