<svg width="13" height="20" viewBox="0 0 13 20" fill="none" xmlns="http://www.w3.org/2000/svg">
<path d="M12.6884 9.9163C12.6884 9.5323 12.3948 9.23865 12.0108 9.23865C11.6268 9.23865 11.3331 9.5323 11.3331 9.9163C11.3331 12.5591 9.18724 14.705 6.54441 14.705C3.90158 14.705 1.75569 12.5591 1.75569 9.9163C1.75569 9.5323 1.46204 9.23865 1.07804 9.23865C0.694038 9.23865 0.400391 9.5323 0.400391 9.9163C0.400391 13.0561 2.74957 15.6989 5.86676 16.0377V17.8448H3.40463C3.02063 17.8448 2.72698 18.1384 2.72698 18.5224C2.72698 18.9064 3.02063 19.2001 3.40463 19.2001H9.68418C10.0682 19.2001 10.3618 18.9064 10.3618 18.5224C10.3618 18.1384 10.0682 17.8448 9.68418 17.8448H7.22205V16.0377C10.3392 15.6989 12.6884 13.0561 12.6884 9.9163Z" fill="white" fill-opacity="0.5"/>
<path d="M6.54471 0C4.46658 0 2.77246 1.69412 2.77246 3.77224V9.89367C2.77246 11.9944 4.46658 13.6659 6.54471 13.6885C8.62283 13.6885 10.317 11.9944 10.317 9.91626V3.77224C10.317 1.69412 8.62283 0 6.54471 0Z" fill="white" fill-opacity="0.5"/>
</svg>
