<svg width="22" height="22" viewBox="0 0 22 22" fill="none" xmlns="http://www.w3.org/2000/svg">
    <path d="M18.0397 11.3622C18.0397 10.9222 17.7032 10.5857 17.2632 10.5857C16.8232 10.5857 16.4868 10.9222 16.4868 11.3622C16.4868 14.3904 14.028 16.8492 10.9997 16.8492C7.97148 16.8492 5.51266 14.3904 5.51266 11.3622C5.51266 10.9222 5.17619 10.5857 4.73619 10.5857C4.29619 10.5857 3.95972 10.9222 3.95972 11.3622C3.95972 14.9598 6.65148 17.988 10.2232 18.3763V20.4469H7.40207C6.96207 20.4469 6.6256 20.7833 6.6256 21.2233C6.6256 21.6633 6.96207 21.9998 7.40207 21.9998H14.5974C15.0374 21.9998 15.3738 21.6633 15.3738 21.2233C15.3738 20.7833 15.0374 20.4469 14.5974 20.4469H11.7762V18.3763C15.348 17.988 18.0397 14.9598 18.0397 11.3622Z" fill="#8393A4"/>
    <path d="M10.9998 0C8.61867 0 6.67749 1.94118 6.67749 4.32235V11.3365C6.67749 13.7435 8.61867 15.6588 10.9998 15.6847C13.381 15.6847 15.3222 13.7435 15.3222 11.3624V4.32235C15.3222 1.94118 13.381 0 10.9998 0Z" fill="#8393A4"/>
</svg>
