<svg width="23" height="22" viewBox="0 0 23 22" fill="none" xmlns="http://www.w3.org/2000/svg">
    <g clip-path="url(#clip0)">
        <path d="M20.9556 2.30498C18.5444 -0.0542604 14.6897 -0.0537472 12.2791 2.30615L2.16882 12.4165C0.340684 14.2877 0.375622 17.2866 2.24686 19.1147C4.08731 20.9128 7.02664 20.9128 8.86709 19.1147L18.0221 9.95972C19.2123 8.76956 19.2123 6.83987 18.0221 5.64971C16.8319 4.45955 14.9022 4.45955 13.7121 5.64971L4.95511 14.4066C4.64967 14.7229 4.65844 15.2269 4.9747 15.5323C5.28321 15.8303 5.77229 15.8303 6.0808 15.5323L14.8377 6.77536C15.4184 6.21907 16.3401 6.23889 16.8964 6.81958C17.4358 7.38274 17.4358 8.27092 16.8964 8.83407L7.74144 17.989C6.50467 19.2082 4.5137 19.1939 3.29452 17.9572C2.08766 16.7329 2.08766 14.7664 3.29452 13.5421L13.4048 3.4318C15.2057 1.63025 18.126 1.62974 19.9275 3.43059C21.7291 5.23144 21.7296 8.15178 19.9287 9.95333L9.81843 20.0636C9.48449 20.3496 9.44559 20.8522 9.73157 21.1861C10.0176 21.5201 10.5201 21.559 10.8541 21.273C10.8852 21.2463 10.9142 21.2173 10.9409 21.1861L21.0512 11.0758C23.4468 8.62743 23.404 4.70056 20.9556 2.30498Z" fill="#8393A4"/>
    </g>
    <defs>
        <clipPath id="clip0">
            <rect width="22" height="22" fill="white" transform="translate(0.820312)"/>
        </clipPath>
    </defs>
</svg>
