<svg width="191" height="90" viewBox="0 0 191 90" fill="none" xmlns="http://www.w3.org/2000/svg">
<path d="M63.0714 61.6599C50.1712 66.2403 37.6343 67.8233 27.8148 66.7205C17.9205 65.6094 11.1356 61.8326 9.08646 56.0615C7.03735 50.2904 9.92131 43.0805 16.8994 35.9785C23.8247 28.9303 34.5528 22.2527 47.4529 17.6723C60.353 13.0919 72.89 11.5089 82.7094 12.6117C92.6037 13.7229 99.3887 17.4997 101.438 23.2708C103.487 29.0418 100.603 36.2517 93.6249 43.3537C86.6995 50.4019 75.9715 57.0795 63.0714 61.6599Z" stroke="#454545" stroke-width="2"/>
<path d="M83.0714 71.6599C70.1712 76.2403 57.6343 77.8233 47.8148 76.7205C37.9205 75.6094 31.1356 71.8326 29.0865 66.0615C27.0373 60.2904 29.9213 53.0805 36.8994 45.9785C43.8247 38.9303 54.5528 32.2527 67.4529 27.6723C80.353 23.0919 92.89 21.5089 102.709 22.6117C112.604 23.7229 119.389 27.4997 121.438 33.2708C123.487 39.0418 120.603 46.2517 113.625 53.3537C106.7 60.4019 95.9715 67.0795 83.0714 71.6599Z" stroke="#454545" stroke-width="2"/>
<path d="M123.071 61.6599C110.171 66.2403 97.6343 67.8233 87.8148 66.7205C77.9205 65.6094 71.1356 61.8326 69.0865 56.0615C67.0373 50.2904 69.9213 43.0805 76.8994 35.9785C83.8247 28.9303 94.5528 22.2527 107.453 17.6723C120.353 13.0919 132.89 11.5089 142.709 12.6117C152.604 13.7229 159.389 17.4997 161.438 23.2708C163.487 29.0418 160.603 36.2517 153.625 43.3537C146.7 50.4019 135.972 57.0795 123.071 61.6599Z" stroke="#37E7FF" stroke-width="2"/>
<path d="M143.071 71.6599C130.171 76.2403 117.634 77.8233 107.815 76.7205C97.9205 75.6094 91.1356 71.8326 89.0865 66.0615C87.0373 60.2904 89.9213 53.0805 96.8994 45.9785C103.825 38.9303 114.553 32.2527 127.453 27.6723C140.353 23.0919 152.89 21.5089 162.709 22.6117C172.604 23.7229 179.389 27.4997 181.438 33.2708C183.487 39.0418 180.603 46.2517 173.625 53.3537C166.7 60.4019 155.972 67.0795 143.071 71.6599Z" stroke="#37E7FF" stroke-width="2"/>
</svg>
