<svg width="131" height="90" viewBox="0 0 131 90" fill="none" xmlns="http://www.w3.org/2000/svg">
<path d="M63.0709 61.6599C50.1707 66.2403 37.6338 67.8233 27.8143 66.7205C17.92 65.6094 11.1351 61.8326 9.08597 56.0615C7.03686 50.2904 9.92083 43.0805 16.8989 35.9785C23.8242 28.9303 34.5523 22.2527 47.4524 17.6723C60.3526 13.0919 72.8895 11.5089 82.709 12.6117C92.6032 13.7229 99.3882 17.4997 101.437 23.2708C103.486 29.0418 100.602 36.2517 93.6244 43.3537C86.6991 50.4019 75.971 57.0795 63.0709 61.6599Z" stroke="#626262" stroke-width="2"/>
<path d="M83.0709 71.6599C70.1707 76.2403 57.6338 77.8233 47.8143 76.7205C37.92 75.6094 31.1351 71.8326 29.086 66.0615C27.0369 60.2904 29.9208 53.0805 36.8989 45.9785C43.8242 38.9303 54.5523 32.2527 67.4524 27.6723C80.3526 23.0919 92.8895 21.5089 102.709 22.6117C112.603 23.7229 119.388 27.4997 121.437 33.2708C123.486 39.0418 120.602 46.2517 113.624 53.3537C106.699 60.4019 95.971 67.0795 83.0709 71.6599Z" stroke="#626262" stroke-width="2"/>
</svg>
