<svg width="24" height="23" viewBox="0 0 24 23" fill="none" xmlns="http://www.w3.org/2000/svg">
<path d="M10.1443 0C4.55952 0 0.015625 4.54389 0.015625 10.1287C0.015625 15.7139 4.55952 20.2574 10.1443 20.2574C15.7295 20.2574 20.2731 15.7139 20.2731 10.1287C20.2731 4.54389 15.7295 0 10.1443 0ZM10.1443 18.3876C5.59047 18.3876 1.88554 14.6826 1.88554 10.1288C1.88554 5.57489 5.59047 1.86992 10.1443 1.86992C14.6982 1.86992 18.4031 5.57485 18.4031 10.1287C18.4031 14.6826 14.6982 18.3876 10.1443 18.3876Z" fill="white"/>
<path d="M22.7416 21.404L17.3812 16.0436C17.0159 15.6783 16.4244 15.6783 16.0591 16.0436C15.6938 16.4085 15.6938 17.0007 16.0591 17.3656L21.4195 22.7261C21.6021 22.9087 21.8412 23 22.0806 23C22.3196 23 22.5589 22.9087 22.7416 22.7261C23.1068 22.3611 23.1068 21.769 22.7416 21.404Z" fill="white"/>
</svg>
