<svg width="23" height="23" viewBox="0 0 23 23" fill="none" xmlns="http://www.w3.org/2000/svg">
    <path d="M12.5733 23H10.4267C9.70121 23 9.08883 22.4566 9.00258 21.735L8.77354 19.9372C8.31642 19.7886 7.87558 19.6056 7.45679 19.3919L6.02504 20.5045C5.44429 20.954 4.62683 20.9022 4.12275 20.3838L2.61337 18.8744C2.09875 18.3751 2.047 17.5576 2.49646 16.9778L3.60908 15.5451C3.39442 15.1263 3.21137 14.6855 3.06379 14.2284L1.26213 13.9993C0.543375 13.9112 0 13.2988 0 12.5733V10.4267C0 9.70121 0.543375 9.08883 1.265 9.00258L3.06283 8.77354C3.21137 8.31642 3.39442 7.87558 3.60812 7.45679L2.49646 6.02504C2.04604 5.44429 2.09875 4.62587 2.61817 4.12179L4.12754 2.61242C4.62683 2.09779 5.44525 2.047 6.02408 2.4955L7.45583 3.60908C7.87463 3.39538 8.31546 3.21233 8.77354 3.06379L9.00258 1.26213C9.08883 0.543375 9.70121 0 10.4267 0H12.5733C13.2988 0 13.9112 0.543375 13.9974 1.265L14.2265 3.06283C14.6845 3.21137 15.1254 3.39442 15.5442 3.60812L16.9759 2.4955C17.5576 2.04604 18.3741 2.09779 18.8782 2.61721L20.3876 4.12658C20.9022 4.62587 20.954 5.44333 20.5045 6.02312L19.3919 7.45583C19.6065 7.87463 19.7896 8.31546 19.9372 8.77258L21.7388 9.00162C22.4566 9.08883 23 9.70121 23 10.4267V12.5733C23 13.2988 22.4566 13.9112 21.735 13.9974L19.9372 14.2265C19.7886 14.6836 19.6056 15.1244 19.3919 15.5432L20.5045 16.975C20.9549 17.5557 20.9022 18.3732 20.3828 18.8772L18.8734 20.3866C18.3741 20.9013 17.5557 20.954 16.9769 20.5035L15.5442 19.3909C15.1254 19.6056 14.6845 19.7886 14.2274 19.9362L13.9984 21.7379C13.9112 22.4566 13.2988 23 12.5733 23ZM7.40792 18.3425C7.48746 18.3425 7.56892 18.3626 7.64175 18.4029C8.16979 18.698 8.74192 18.9357 9.34183 19.1082C9.52583 19.1609 9.66096 19.3181 9.68492 19.5078L9.95325 21.6162C9.982 21.8567 10.19 22.0417 10.4267 22.0417H12.5733C12.81 22.0417 13.018 21.8567 13.0458 21.621L13.3151 19.5088C13.339 19.319 13.4742 19.1619 13.6582 19.1092C14.2581 18.9367 14.8302 18.699 15.3582 18.4038C15.526 18.3099 15.7349 18.3262 15.8853 18.4441L17.5624 19.7474C17.755 19.8969 18.0253 19.8845 18.1901 19.7148L19.7091 18.1959C19.8825 18.0272 19.896 17.757 19.7465 17.5634L18.4431 15.8863C18.3253 15.7349 18.309 15.5269 18.4029 15.3592C18.698 14.8312 18.9357 14.259 19.1082 13.6591C19.1609 13.4751 19.3181 13.34 19.5078 13.316L21.6162 13.0477C21.8567 13.018 22.0417 12.81 22.0417 12.5733V10.4267C22.0417 10.19 21.8567 9.982 21.621 9.95421L19.5088 9.68492C19.319 9.66096 19.1619 9.52583 19.1092 9.34183C18.9367 8.74192 18.699 8.16979 18.4038 7.64175C18.3099 7.47404 18.3253 7.26608 18.4441 7.11467L19.7474 5.43758C19.8979 5.244 19.8845 4.97375 19.7158 4.81083L18.1968 3.29187C18.0291 3.11746 17.7579 3.10404 17.5643 3.2545L15.8872 4.55783C15.7349 4.67571 15.5269 4.692 15.3592 4.59808C14.8331 4.30292 14.261 4.06621 13.6591 3.89275C13.4751 3.84004 13.34 3.68287 13.316 3.49312L13.0477 1.38479C13.018 1.14329 12.81 0.958333 12.5733 0.958333H10.4267C10.19 0.958333 9.982 1.14329 9.95421 1.37904L9.68492 3.49121C9.66096 3.68096 9.52583 3.83812 9.34183 3.89179C8.74 4.06429 8.16788 4.30196 7.64175 4.59617C7.47404 4.69104 7.26608 4.67379 7.11371 4.55688L5.43662 3.25354C5.24304 3.10308 4.97375 3.1165 4.80988 3.28517L3.29092 4.80508C3.11746 4.97375 3.10404 5.244 3.25354 5.43758L4.55688 7.11467C4.67475 7.26608 4.69104 7.47404 4.59713 7.64175C4.301 8.16979 4.06429 8.74192 3.89179 9.34183C3.83908 9.52583 3.68192 9.66096 3.49217 9.68492L1.38383 9.95325C1.14329 9.982 0.958333 10.19 0.958333 10.4267V12.5733C0.958333 12.81 1.14329 13.018 1.37904 13.0458L3.49121 13.3151C3.68096 13.339 3.83812 13.4742 3.89083 13.6582C4.06333 14.2581 4.301 14.8302 4.59617 15.3582C4.69008 15.526 4.67475 15.7339 4.55592 15.8853L3.25258 17.5624C3.10212 17.756 3.11554 18.0262 3.28421 18.1892L4.80317 19.7081C4.97087 19.8816 5.24017 19.895 5.43567 19.7455L7.11275 18.4422C7.19996 18.377 7.30346 18.3425 7.40792 18.3425Z" fill="white"/>
    <path d="M11.5004 16.2917C8.85828 16.2917 6.70874 14.1422 6.70874 11.5C6.70874 8.85792 8.85828 6.70837 11.5004 6.70837C14.1425 6.70837 16.2921 8.85792 16.2921 11.5C16.2921 14.1422 14.1425 16.2917 11.5004 16.2917ZM11.5004 7.66671C9.38632 7.66671 7.66707 9.38596 7.66707 11.5C7.66707 13.6141 9.38632 15.3334 11.5004 15.3334C13.6145 15.3334 15.3337 13.6141 15.3337 11.5C15.3337 9.38596 13.6145 7.66671 11.5004 7.66671Z" fill="white"/>
</svg>
