<svg width="21" height="21" viewBox="0 0 21 21" fill="none" xmlns="http://www.w3.org/2000/svg">
    <path d="M17.9246 3.07539C15.9415 1.09221 13.3046 0 10.5 0C7.69535 0 5.05854 1.09221 3.07539 3.07539C1.09216 5.05854 0 7.69535 0 10.5C0 13.3046 1.09216 15.9415 3.07539 17.9246C5.05854 19.9078 7.69535 21 10.5 21C13.3046 21 15.9415 19.9078 17.9246 17.9246C19.9078 15.9415 21 13.3046 21 10.5C21 7.69535 19.9078 5.05854 17.9246 3.07539ZM10.5 19.75C5.39954 19.75 1.24999 15.6005 1.24999 10.5C1.24999 5.39954 5.39954 1.24999 10.5 1.24999C15.6005 1.24999 19.75 5.39954 19.75 10.5C19.75 15.6005 15.6005 19.75 10.5 19.75Z" fill="#8393A4"/>
    <path d="M8.22869 7.7271C7.20523 6.70356 5.53987 6.70364 4.51641 7.7271C4.27232 7.97114 4.27232 8.3669 4.51641 8.61099C4.76053 8.85503 5.15629 8.85503 5.40033 8.61099C5.93649 8.07487 6.80881 8.07491 7.34489 8.61099C7.46695 8.73305 7.62687 8.79408 7.78679 8.79408C7.94671 8.79408 8.10671 8.73305 8.22869 8.61099C8.47277 8.3669 8.47277 7.97118 8.22869 7.7271Z" fill="#8393A4"/>
    <path d="M16.4835 7.7271C15.46 6.70364 13.7947 6.70356 12.7712 7.7271C12.5271 7.97114 12.5271 8.3669 12.7712 8.61099C13.0154 8.85503 13.4111 8.85503 13.6552 8.61099C14.1912 8.07487 15.0636 8.07483 15.5997 8.61099C15.7218 8.73305 15.8817 8.79408 16.0416 8.79408C16.2015 8.79408 16.3615 8.73305 16.4835 8.61099C16.7276 8.3669 16.7276 7.97118 16.4835 7.7271Z" fill="#8393A4"/>
    <path d="M16.0417 10.9585H4.95834C4.61315 10.9585 4.33334 11.2383 4.33334 11.5835C4.33334 14.9838 7.09972 17.7502 10.5 17.7502C13.9003 17.7502 16.6667 14.9838 16.6667 11.5835C16.6667 11.2383 16.3869 10.9585 16.0417 10.9585ZM10.5 16.5002C8.00059 16.5002 5.93078 14.6256 5.62287 12.2085H15.3772C15.0692 14.6256 12.9994 16.5002 10.5 16.5002Z" fill="#8393A4"/>
</svg>
