<svg width="20" height="21" viewBox="0 0 20 21" fill="none"
     xmlns="http://www.w3.org/2000/svg">
    <g clip-path="url(#clip0)">
        <path
                d="M11.6723 1.58363C11.4491 1.47715 11.1861 1.50538 10.9937 1.66059L4.75422 6.65192H1.77302C1.06621 6.65192 0.490234 7.2279 0.490234 7.93471V13.0659C0.490234 13.774 1.06621 14.3487 1.77302 14.3487H4.75422L10.9924 19.34C11.1092 19.4323 11.2515 19.4798 11.3939 19.4798C11.4889 19.4798 11.5838 19.458 11.6723 19.4157C11.8942 19.3092 12.0353 19.0847 12.0353 18.8384V2.16216C12.0353 1.91587 11.8942 1.69138 11.6723 1.58363Z"
                fill="white"  />
        <path
                d="M15.2819 5.96436C15.0292 5.7155 14.6239 5.71935 14.375 5.96949C14.1261 6.2222 14.1287 6.62756 14.3801 6.87771C15.3499 7.83467 15.8836 9.1213 15.8836 10.5003C15.8836 11.8793 15.3499 13.1659 14.3801 14.1229C14.1287 14.3705 14.1261 14.7771 14.375 15.0298C14.5007 15.1568 14.6662 15.2197 14.8304 15.2197C14.9933 15.2197 15.1562 15.1581 15.2819 15.0337C16.498 13.8368 17.1663 12.2257 17.1663 10.5003C17.1663 8.77495 16.498 7.16377 15.2819 5.96436Z"
                fill="white"  />
        <path
                d="M17.092 4.15688C16.8393 3.90673 16.4339 3.9093 16.1837 4.16072C15.9349 4.41215 15.9375 4.81879 16.1876 5.06766C17.6461 6.51336 18.4491 8.44267 18.4491 10.5003C18.4491 12.5579 17.6461 14.4859 16.1876 15.9316C15.9375 16.1817 15.9349 16.5884 16.1837 16.8398C16.3107 16.9655 16.4749 17.0284 16.6391 17.0284C16.802 17.0284 16.9662 16.9668 17.092 16.8424C18.7955 15.1555 19.7319 12.9029 19.7319 10.5003C19.7319 8.0976 18.7955 5.84503 17.092 4.15688Z"
                fill="white"  />
    </g>
    <defs>
        <clipPath id="clip0">
            <rect width="19.2418" height="19.2418" fill="white"
                  transform="translate(0.490234 0.878906)" />
        </clipPath>
    </defs>
</svg>
