<svg width="23" height="23" viewBox="0 0 23 23" fill="none" xmlns="http://www.w3.org/2000/svg">
<path d="M7.41642 3.27424C9.08683 -0.110375 13.9132 -0.110375 15.5836 3.27424C16.2469 4.61827 17.5291 5.54984 19.0123 5.76537C22.7475 6.30812 24.2389 10.8982 21.5361 13.5328C20.4628 14.579 19.9731 16.0863 20.2265 17.5635C20.8645 21.2836 16.9599 24.1204 13.6191 22.3641C12.2924 21.6666 10.7076 21.6666 9.38092 22.3641C6.04011 24.1204 2.13551 21.2836 2.77355 17.5635C3.02691 16.0863 2.53716 14.579 1.46388 13.5328C-1.23889 10.8982 0.252533 6.30812 3.98767 5.76537C5.4709 5.54984 6.7531 4.61827 7.41642 3.27424Z" fill="#959595"/>
</svg>
