<svg width="87" height="19" viewBox="0 0 87 19" fill="none" xmlns="http://www.w3.org/2000/svg">
<path d="M4.71301 11.2684C3.24727 10.545 3.24727 8.45495 4.71301 7.73157C5.5902 7.29865 6.1982 6.46181 6.33886 5.49378C6.5739 3.87624 8.5617 3.23037 9.70262 4.40083C10.3854 5.10131 11.3692 5.42095 12.3333 5.25559C13.9443 4.97928 15.1728 6.6702 14.4122 8.11697C13.957 8.98281 13.957 10.0172 14.4122 10.883C15.1728 12.3298 13.9443 14.0207 12.3333 13.7444C11.3692 13.5791 10.3854 13.8987 9.70262 14.5992C8.5617 15.7696 6.5739 15.1238 6.33886 13.5062C6.1982 12.5382 5.5902 11.7014 4.71301 11.2684Z" stroke="#848484"/>
<path d="M38.4917 11.7168C36.6544 10.81 36.6544 8.18999 38.4917 7.2832C39.2213 6.92311 39.7271 6.22706 39.8441 5.42188C40.1387 3.39423 42.6305 2.5846 44.0607 4.05182C44.6286 4.63446 45.4468 4.90032 46.2488 4.76278C48.2682 4.41642 49.8082 6.53606 48.8548 8.34964C48.4762 9.06982 48.4762 9.93018 48.8548 10.6504C49.8082 12.4639 48.2682 14.5836 46.2488 14.2372C45.4468 14.0997 44.6286 14.3655 44.0607 14.9482C42.6305 16.4154 40.1387 15.6058 39.8441 13.5781C39.7271 12.7729 39.2213 12.0769 38.4917 11.7168Z" fill="#F70E4D"/>
<path d="M72.713 11.2684C71.2473 10.545 71.2473 8.45495 72.713 7.73157C73.5902 7.29865 74.1982 6.46181 74.3389 5.49378C74.5739 3.87624 76.5617 3.23037 77.7026 4.40083C78.3854 5.10131 79.3692 5.42095 80.3333 5.25559C81.9443 4.97928 83.1728 6.6702 82.4122 8.11697C81.957 8.98281 81.957 10.0172 82.4122 10.883C83.1728 12.3298 81.9443 14.0207 80.3333 13.7444C79.3692 13.5791 78.3854 13.8987 77.7026 14.5992C76.5617 15.7696 74.5739 15.1238 74.3389 13.5062C74.1982 12.5382 73.5902 11.7014 72.713 11.2684Z" stroke="#848484"/>
</svg>
