<svg width="75" height="66" viewBox="0 0 75 66" fill="none" xmlns="http://www.w3.org/2000/svg">
    <path d="M37.5912 23.5485C33.4094 23.5485 30.0193 26.9384 30.0193 31.1204C30.0193 35.3021 33.4093 38.6923 37.5912 38.6923C41.7729 38.6923 45.1631 35.3023 45.1631 31.1204C45.1631 26.9384 41.7731 23.5485 37.5912 23.5485ZM37.5912 35.0864C35.4007 35.0864 33.6249 33.3107 33.6249 31.1202C33.6249 28.9297 35.4007 27.1539 37.5912 27.1539C39.7817 27.1539 41.5574 28.9297 41.5574 31.1202C41.5574 33.3107 39.7817 35.0864 37.5912 35.0864Z" fill="white" fill-opacity="0.5"/>
    <path d="M67.7886 6.24139L18.5716 0.652785C16.6614 0.381214 14.7261 0.938849 13.2533 2.18525C11.7808 3.32709 10.8368 5.01966 10.6393 6.87252L9.73793 14.2641H6.94337C2.97712 14.2641 0.00243602 17.7795 0.00243602 21.7458V58.6134C-0.0974621 62.3955 2.88758 65.5427 6.6699 65.6426C6.761 65.6451 6.85227 65.6456 6.94337 65.6444H56.4307C60.397 65.6444 64.0026 62.5796 64.0026 58.6134V57.1711C65.2323 56.9336 66.3988 56.4424 67.428 55.7289C68.8885 54.4993 69.8236 52.7579 70.0421 50.8614L74.1886 14.2641C74.6113 10.2887 71.7585 6.71258 67.7886 6.24139ZM60.397 58.6134C60.397 60.5965 58.4139 62.0387 56.4307 62.0387H6.94337C5.15193 62.0913 3.65709 60.6817 3.60446 58.8903C3.6017 58.798 3.60291 58.7057 3.60809 58.6134V51.943L17.58 41.6669C19.2584 40.3783 21.6225 40.4928 23.1688 41.9373L32.9942 50.5908C34.4863 51.8436 36.3645 52.5439 38.3126 52.5739C39.8357 52.5926 41.3339 52.1869 42.6394 51.4021L60.3972 41.126V58.6134H60.397ZM60.397 36.8894L40.7462 48.3373C39.0588 49.337 36.923 49.156 35.4278 47.8867L25.5124 39.1429C22.6705 36.701 18.5169 36.5512 15.5067 38.7823L3.60809 47.4358V21.7458C3.60809 19.7627 4.96025 17.8698 6.94337 17.8698H56.4307C58.5495 17.9576 60.2605 19.6298 60.397 21.7458V36.8894ZM70.5864 13.7774C70.5852 13.7893 70.5842 13.8014 70.5828 13.8133L66.3462 50.4105C66.3534 51.3595 65.9207 52.2582 65.1743 52.8443C64.8137 53.2049 64.0025 53.3852 64.0025 53.5655V21.7458C63.8601 17.6393 60.5385 14.3571 56.4306 14.2641H13.3434L14.1547 7.23312C14.3307 6.32265 14.8067 5.49759 15.5068 4.8894C16.2974 4.34281 17.2532 4.08797 18.2112 4.1682L67.3381 9.84704C69.3202 10.0353 70.7747 11.795 70.5864 13.7774Z" fill="white" fill-opacity="0.5"/>
</svg>
