<svg width="57" height="57" viewBox="0 0 57 57" fill="red" xmlns="http://www.w3.org/2000/svg">
                                    <path d="M1.00011 10.6134V10.6133C1.00001 5.31383 5.31329 1.00034 10.6133 1C10.6134 1 10.6134 1 10.6134 1L46.3867 1.00022C48.9564 1.00022 51.3674 1.99881 53.1844 3.81574C55.0014 5.63274 56 8.04369 56 10.6135V46.3868C56 51.6867 51.6867 56 46.3868 56H10.6135C5.31355 56 1.0001 51.6866 1 46.3869L1.00011 10.6134ZM10.6135 2.33984H10.6134C6.05054 2.3401 2.33984 6.05051 2.33996 10.6132C2.33996 10.6133 2.33996 10.6133 2.33996 10.6133L2.33984 46.3868C2.33997 50.9495 6.05059 54.6602 10.6135 54.6602H46.3868C50.9496 54.6602 54.6602 50.9496 54.6602 46.3868V10.6135C54.6602 8.4054 53.7984 6.32447 52.237 4.76311L52.237 4.76308C50.6756 3.20187 48.5947 2.34007 46.3868 2.34007L10.6135 2.33984Z" stroke="#DEDEDE" stroke-width="2"/>
                                    <path d="M29.1707 30.2157L29.1707 32.63L30.8778 30.9228L36.8804 24.92C37.1419 24.6584 37.5662 24.6584 37.8277 24.92C38.0894 25.1816 38.0894 25.6058 37.8278 25.8674L28.9744 34.7211C28.8487 34.8468 28.6782 34.9174 28.5006 34.9174C28.323 34.9174 28.1527 34.8468 28.0271 34.7212L28.027 34.7211L19.1733 25.8676C19.1733 25.8676 19.1733 25.8676 19.1733 25.8676C18.9116 25.606 18.9116 25.1818 19.1733 24.9202C19.4349 24.6585 19.8591 24.6586 20.1206 24.9201L20.1207 24.9202L26.1237 30.9231L27.8308 32.6302L27.8308 30.216L27.8307 12.4019C27.8307 12.0319 28.1307 11.7319 28.5006 11.7319C28.8706 11.7319 29.1705 12.0319 29.1705 12.4019L29.1707 30.2157Z" stroke="#DEDEDE" stroke-width="2"/>
                                    <path d="M12.4019 43.9282H44.5979C44.9679 43.9282 45.2679 44.2281 45.2679 44.5981C45.2679 44.9681 44.9679 45.2681 44.5979 45.2681H12.4019C12.0319 45.2681 11.7319 44.9681 11.7319 44.5981C11.7319 44.2282 12.0319 43.9282 12.4019 43.9282Z" stroke="#DEDEDE" stroke-width="2"/>
                                    </svg>
                                    