<svg width="26" height="30" viewBox="0 0 26 30" fill="none" xmlns="http://www.w3.org/2000/svg">
<path d="M22.8119 20.9265C20.746 18.8289 18.0074 17.6738 15.1005 17.6738H11.7469C8.83997 17.6738 6.1013 18.8289 4.03548 20.9265C1.97978 23.0138 0.847656 25.769 0.847656 28.6848C0.847656 29.1478 1.22304 29.5232 1.68606 29.5232H25.1613C25.6243 29.5232 25.9997 29.1478 25.9997 28.6848C25.9997 25.769 24.8676 23.0138 22.8119 20.9265Z" fill="white"/>
<path d="M13.4235 0.905762C9.26289 0.905762 5.87793 4.29072 5.87793 8.45137C5.87793 12.612 9.26289 15.997 13.4235 15.997C17.5842 15.997 20.9691 12.612 20.9691 8.45137C20.9691 4.29072 17.5842 0.905762 13.4235 0.905762Z" fill="white"/>
</svg>
