<svg width="25" height="25" viewBox="0 0 29 29" fill="none" xmlns="http://www.w3.org/2000/svg">
<g clip-path="url(#clip0)">
<path d="M14.0701 22.8122H15.7731C15.7731 22.8122 16.2879 22.7552 16.5497 22.4719C16.792 22.2119 16.7831 21.7238 16.7831 21.7238C16.7831 21.7238 16.7493 19.4382 17.811 19.1016C18.8566 18.7702 20.1998 21.3105 21.6231 22.2885C22.6991 23.0277 23.5167 22.8656 23.5167 22.8656L27.3235 22.8122C27.3235 22.8122 29.3151 22.6893 28.371 21.1234C28.2944 20.9952 27.8205 19.9655 25.5404 17.8492C23.1533 15.6332 23.474 15.993 26.3491 12.1613C28.1002 9.82768 28.8003 8.40258 28.5812 7.79334C28.3728 7.21261 27.0848 7.36581 27.0848 7.36581L22.8024 7.39075C22.8024 7.39075 22.4853 7.348 22.2484 7.48873C22.0186 7.62768 21.8707 7.94832 21.8707 7.94832C21.8707 7.94832 21.192 9.75465 20.2871 11.2902C18.3792 14.5305 17.615 14.7015 17.3033 14.5002C16.5782 14.0317 16.7599 12.6155 16.7599 11.6108C16.7599 8.47027 17.2356 7.16095 15.8318 6.82249C15.3651 6.71026 15.0231 6.63545 13.8314 6.62298C12.3029 6.60694 11.0079 6.62832 10.2757 6.98638C9.78761 7.22508 9.41174 7.75772 9.64154 7.788C9.92478 7.82541 10.5661 7.96079 10.9063 8.42395C11.3463 9.02072 11.3303 10.3639 11.3303 10.3639C11.3303 10.3639 11.5832 14.0602 10.7407 14.5198C10.1617 14.8351 9.36899 14.1921 7.66777 11.251C6.79667 9.74574 6.13756 8.08015 6.13756 8.08015C6.13756 8.08015 6.01108 7.77019 5.78485 7.60452C5.51052 7.40322 5.12574 7.33909 5.12574 7.33909L1.0535 7.36403C1.0535 7.36403 0.442484 7.38185 0.21803 7.64727C0.0185148 7.8842 0.201997 8.37229 0.201997 8.37229C0.201997 8.37229 3.39067 15.8309 6.99975 19.5914C10.3113 23.0384 14.0701 22.8122 14.0701 22.8122Z" fill="#1E88E5"/>
</g>
<defs>
<clipPath id="clip0">
<rect width="28.5" height="28.5" fill="white" transform="translate(0.125 0.5)"/>
</clipPath>
</defs>
</svg>
