<svg width="19" height="30" viewBox="0 0 19 30" fill="none" xmlns="http://www.w3.org/2000/svg">
<path d="M18.4198 15.7704C18.4198 15.1948 17.9796 14.7546 17.404 14.7546C16.8284 14.7546 16.3882 15.1948 16.3882 15.7704C16.3882 19.732 13.1715 22.9487 9.20991 22.9487C5.24829 22.9487 2.0316 19.732 2.0316 15.7704C2.0316 15.1948 1.59142 14.7546 1.0158 14.7546C0.440179 14.7546 0 15.1948 0 15.7704C0 20.4769 3.52144 24.4385 8.19411 24.9464V27.6552H4.50337C3.92775 27.6552 3.48758 28.0954 3.48758 28.671C3.48758 29.2466 3.92775 29.6868 4.50337 29.6868H13.9164C14.4921 29.6868 14.9322 29.2466 14.9322 28.671C14.9322 28.0954 14.4921 27.6552 13.9164 27.6552H10.2257V24.9464C14.8984 24.4385 18.4198 20.4769 18.4198 15.7704Z" fill="white"/>
<path d="M9.21028 0.905792C6.09516 0.905792 3.55566 3.44529 3.55566 6.5604V15.7365C3.55566 18.8854 6.09516 21.3911 9.21028 21.4249C12.3254 21.4249 14.8649 18.8854 14.8649 15.7703V6.5604C14.8649 3.44529 12.3254 0.905792 9.21028 0.905792Z" fill="white"/>
</svg>
