<svg width="30" height="23" viewBox="0 0 30 23" fill="none" xmlns="http://www.w3.org/2000/svg">
<path d="M29.2867 5.69588L29.2854 5.68261C29.2608 5.44919 29.0163 3.37296 28.007 2.31692C26.8403 1.07481 25.5177 0.923912 24.8816 0.851562C24.8289 0.845589 24.7807 0.840057 24.7375 0.834305L24.6869 0.828995C20.853 0.550217 15.0631 0.512161 15.0051 0.51194L15 0.511719L14.9949 0.51194C14.9369 0.512161 9.14699 0.550217 5.27861 0.828995L5.2275 0.834305C5.18635 0.839836 5.14099 0.844925 5.09165 0.850677C4.46285 0.923248 3.15437 1.07436 1.98438 2.36139C1.02304 3.40614 0.745148 5.4379 0.716606 5.66624L0.713287 5.69588C0.704658 5.79301 0.5 8.10532 0.5 10.4267V12.5967C0.5 14.9181 0.704658 17.2304 0.713287 17.3278L0.714836 17.3424C0.739395 17.5721 0.983658 19.6102 1.98837 20.6667C3.08533 21.8672 4.47237 22.0261 5.21843 22.1115C5.33636 22.125 5.43791 22.1365 5.50716 22.1487L5.5742 22.158C7.78783 22.3686 14.7283 22.4724 15.0226 22.4766L15.0314 22.4768L15.0403 22.4766C15.0982 22.4763 20.888 22.4383 24.7218 22.1595L24.7725 22.1542C24.821 22.1478 24.8754 22.142 24.9351 22.1358C25.5604 22.0695 26.8618 21.9316 28.0156 20.6621C28.977 19.6171 29.2551 17.5853 29.2834 17.3572L29.2867 17.3276C29.2953 17.2302 29.5002 14.9181 29.5002 12.5967V10.4267C29.5 8.10532 29.2953 5.79324 29.2867 5.69588ZM27.8006 12.5967C27.8006 14.7453 27.6129 16.9581 27.5952 17.1612C27.5231 17.7207 27.2299 19.0062 26.7616 19.5153C26.0394 20.3098 25.2975 20.3886 24.7559 20.4459C24.6904 20.4528 24.6298 20.4594 24.5749 20.4663C20.8667 20.7344 15.2954 20.7756 15.0387 20.7771C14.7509 20.7729 7.91196 20.6683 5.76581 20.4689C5.65585 20.451 5.53703 20.4373 5.4118 20.4231C4.77659 20.3503 3.90707 20.2508 3.23844 19.5153L3.22273 19.4985C2.76253 19.019 2.47778 17.817 2.40543 17.1678C2.39193 17.0143 2.19944 14.7754 2.19944 12.5967V10.4267C2.19944 8.28056 2.38662 6.07024 2.40476 5.86293C2.49083 5.20382 2.78952 3.99622 3.23844 3.50814C3.98273 2.68951 4.76752 2.59879 5.28658 2.53883C5.33614 2.53308 5.38238 2.52777 5.42508 2.52224C9.18726 2.25275 14.7987 2.21271 15 2.21116C15.2013 2.21249 20.8108 2.25275 24.5395 2.52224C24.5853 2.52799 24.6353 2.53374 24.6891 2.53994C25.223 2.60078 26.0299 2.69283 26.7704 3.4827L26.7773 3.49C27.2375 3.96945 27.5222 5.19254 27.5946 5.85474C27.6074 5.99966 27.8006 8.24339 27.8006 10.4267V12.5967Z" fill="white" fill-opacity="0.7"/>
<path d="M19.463 10.1968L13.0562 6.69129C12.6878 6.48973 12.2523 6.49725 11.8913 6.7112C11.53 6.92537 11.3145 7.30371 11.3145 7.72365V14.6745C11.3145 15.0925 11.5286 15.4701 11.8875 15.6845C12.0749 15.7965 12.2827 15.8527 12.4909 15.8527C12.6816 15.8527 12.8727 15.8056 13.0486 15.7109L19.4557 12.2657C19.836 12.0611 20.0734 11.6657 20.0752 11.2336C20.0767 10.8015 19.8422 10.4043 19.463 10.1968ZM13.0139 13.8001V8.60512L17.8022 11.2252L13.0139 13.8001Z" fill="white" fill-opacity="0.7"/>
</svg>
